:version 1.10
:name ASF
:units
  mass 1
  length 1
  angle deg
:documentation
  ASF file generated by Kaydara
:root
  axis xyz
  order  tx ty tz rx ry rz
  position 0 0 0
  orientation 0 0 0
:bonedata
  begin
    id 1
    name RightUpLegDummy
    direction -0.718183 -0.695806 0.00816078
    length 4.904
    axis 0 0 0 xyz
  end
  begin
    id 2
    name RightUpLeg
    direction 3.53373e-006 -0.995788 0.0916898
    length 17.4976
    axis -3.49089 -0.000906625 0.000286804 xyz
    dof rx ry rz
  end
  begin
    id 3
    name RightLeg
    direction 0.00371092 -0.995096 -0.0988419
    length 16.5821
    axis 3.68512 0.0193738 -0.131023 xyz
    dof rx ry rz
  end
  begin
    id 4
    name RightFoot
    direction 0.00079151 -0.46099 0.887405
    length 3.77069
    axis 4.81691e-005 -0.120479 -0.188788 xyz
    dof rx ry rz
  end
  begin
    id 5
    name RightToes
    direction 0 0 0
    length 0
    axis 0 0 0 xyz
    dof rx ry rz
  end
  begin
    id 6
    name SpineDummy
    direction 8.3039e-015 1 4.57515e-016
    length 4.6813
    axis 0 0 0 xyz
  end
  begin
    id 7
    name Spine
    direction -3.15643e-008 0.999988 0.00495137
    length 10.1015
    axis -0.001389 0.000121418 2.40972e-006 xyz
    dof rx ry rz
  end
  begin
    id 8
    name Spine1
    direction 0 0 0
    length 0
    axis -0.001389 0.000121451 1.30017e-006 xyz
    dof rx ry rz
  end
  begin
    id 9
    name HEadDummy
    direction -1.99912e-008 0.999999 0.00127422
    length 3.43865
    axis -0.001389 0.000121451 1.30017e-006 xyz
  end
  begin
    id 10
    name HEad
    direction 0 0 0
    length 0
    axis 0 0 0 xyz
    dof rx ry rz
  end
  begin
    id 11
    name LeftShoulder1Dummy
    direction 0.998891 -0.0402509 -0.0244456
    length 3.5433
    axis -0.001389 0.000121451 1.30017e-006 xyz
  end
  begin
    id 12
    name LeftShoulder1
    direction 0.99951 -0.000327763 0.0313091
    length 4.05031
    axis -0.001389 0.000121451 1.30017e-006 xyz
    dof rx ry rz
  end
  begin
    id 13
    name LeftArm
    direction 0.998561 -0.00100056 -0.0536182
    length 10.3537
    axis -23.1894 0.134784 0.967509 xyz
    dof rx ry rz
  end
  begin
    id 14
    name LeftForeArm
    direction 0.998903 0.00866432 0.046012
    length 8.70632
    axis -9.91835 -0.06569 -0.177794 xyz
    dof rx ry rz
  end
  begin
    id 15
    name LeftHand
    direction 0 0 0
    length 0
    axis 0 0 0 xyz
    dof rx ry rz
  end
  begin
    id 16
    name RightShoulderDummy
    direction -0.998891 -0.0402509 -0.0244414
    length 3.5433
    axis -0.001389 0.000121451 1.30017e-006 xyz
  end
  begin
    id 17
    name RightShoulder
    direction -0.99951 -0.000327807 0.0313133
    length 4.05031
    axis 0.215806 0.000203643 -0.0068026 xyz
    dof rx ry rz
  end
  begin
    id 18
    name RightArm
    direction -0.998573 -0.000999564 -0.053403
    length 10.3947
    axis -23.2009 -0.134239 -0.964101 xyz
    dof rx ry rz
  end
  begin
    id 19
    name RightForeArm
    direction -0.998898 0.00868028 0.0461306
    length 8.68355
    axis -9.92322 0.0658061 0.178868 xyz
    dof rx ry rz
  end
  begin
    id 20
    name RightHand
    direction 0 0 0
    length 0
    axis 0 0 0 xyz
    dof rx ry rz
  end
  begin
    id 21
    name LeftUpLegDummy
    direction 0.718183 -0.695806 0.00816078
    length 4.904
    axis 0 0 0 xyz
  end
  begin
    id 22
    name LeftUpLeg
    direction -6.81752e-006 -0.995793 0.0916337
    length 17.4976
    axis -3.48766 0.00143442 -0.000524262 xyz
    dof rx ry rz
  end
  begin
    id 23
    name LeftLeg
    direction -0.00601358 -0.995091 -0.0987824
    length 16.5821
    axis 3.68178 -0.00654042 -0.000285133 xyz
    dof rx ry rz
  end
  begin
    id 24
    name LeftFoot
    direction -0.00417578 -0.460984 0.887399
    length 3.77069
    axis 1.87233e-006 4.66016e-005 -8.6538e-006 xyz
    dof rx ry rz
  end
  begin
    id 25
    name LeftToes
    direction 0 0 0
    length 0
    axis 0 0 0 xyz
    dof rx ry rz
  end
:hierarchy
  begin
    root RightUpLegDummy SpineDummy LeftUpLegDummy
    RightUpLegDummy RightUpLeg
    RightUpLeg RightLeg
    RightLeg RightFoot
    RightFoot RightToes
    SpineDummy Spine
    Spine Spine1
    Spine1 HEadDummy LeftShoulder1Dummy RightShoulderDummy
    HEadDummy HEad
    LeftShoulder1Dummy LeftShoulder1
    LeftShoulder1 LeftArm
    LeftArm LeftForeArm
    LeftForeArm LeftHand
    RightShoulderDummy RightShoulder
    RightShoulder RightArm
    RightArm RightForeArm
    RightForeArm RightHand
    LeftUpLegDummy LeftUpLeg
    LeftUpLeg LeftLeg
    LeftLeg LeftFoot
    LeftFoot LeftToes
  end

:SAMPLES-PER-SECOND 30
:FULLY-SPECIFIED
:DEGREES
607
root  9.54753 38.9554 9.1964 4.23416 69.8323 7.54045
RightUpLeg  -17.4467 -7.02553 -13.4239
RightLeg  19.8918 9.28797 3.51308
RightFoot  0.914285 -1.11504 10.4174
RightToes  0.000481921 0.542163 -0.142578
Spine  32.2593 -3.2955 -3.12066
Spine1  1.04988 -8.66244 21.0629
HEad  -0.724128 21.4703 -20.7016
LeftShoulder1  2.37959 -10.8415 -9.06794
LeftArm  -17.8845 -50.4667 -41.1843
LeftForeArm  174.235 -77.767 -138.06
LeftHand  -0.25398 0.0180481 5.50724
RightShoulder  5.7585 12.5981 29.7832
RightArm  7.4814 28.875 62.9554
RightForeArm  171.739 63.3129 160.575
RightHand  -1.78806 6.68706 -17.471
LeftUpLeg  -12.3899 30.9573 1.99482
LeftLeg  30.0509 11.6743 7.55554
LeftFoot  -9.55125 0.110509 -3.39747
LeftToes  1.06245e-005 4.65869e-005 -8.65517e-006
608
root  10.0064 39.1971 9.01201 5.77422 67.3434 10.706
RightUpLeg  -15.1042 -3.17631 -15.3795
RightLeg  17.7431 8.34231 2.71888
RightFoot  1.42336 -1.18033 10.6111
RightToes  0.000481921 0.542163 -0.142578
Spine  30.387 -3.7197 -2.06953
Spine1  2.88412 -8.21417 16.8108
HEad  0.639922 22.5421 -21.4876
LeftShoulder1  4.18355 -13.3207 -18.2378
LeftArm  -6.85289 -40.2528 -48.5116
LeftForeArm  -169.436 -71.8643 -153.6
LeftHand  -0.25398 0.0180481 5.50724
RightShoulder  5.60979 12.2564 29.6139
RightArm  9.23778 28.7023 63.9002
RightForeArm  172.762 62.8023 161.076
RightHand  -1.81297 6.89973 -17.4155
LeftUpLeg  -7.87111 32.4705 1.47346
LeftLeg  26.8109 12.7968 7.31487
LeftFoot  -9.09217 0.124194 -3.55195
LeftToes  1.06245e-005 4.65869e-005 -8.65517e-006
609
root  10.465 39.4252 8.92088 7.20493 65.363 12.9366
RightUpLeg  -13.4876 -0.394684 -16.68
RightLeg  15.6898 7.83829 1.82946
RightFoot  1.84064 -1.23476 10.7664
RightToes  0.000481921 0.542163 -0.142578
Spine  27.6554 -4.1821 -1.48148
Spine1  4.43689 -7.93964 13.2346
HEad  2.58181 24.4363 -20.9193
LeftShoulder1  6.3446 -14.3682 -29.4947
LeftArm  -6.55818 -27.7296 -44.6914
LeftForeArm  -173.164 -67.6753 -158.201
LeftHand  -0.25398 0.0180481 5.50724
RightShoulder  5.42858 11.9335 29.1774
RightArm  10.5504 28.5516 63.7657
RightForeArm  174.611 61.6397 162.114
RightHand  -1.76846 7.08376 -16.763
LeftUpLeg  -4.14014 34.4207 1.0857
LeftLeg  23.1785 13.1525 6.26831
LeftFoot  -8.5273 0.13665 -3.48304
LeftToes  1.06245e-005 4.65869e-005 -8.65517e-006
610
root  10.8772 39.5909 8.91144 8.15652 64.4197 14.2467
RightUpLeg  -12.2099 0.337441 -17.3431
RightLeg  14.2262 8.25249 1.17595
RightFoot  1.92301 -1.25821 10.9042
RightToes  0.000481921 0.542163 -0.142578
Spine  24.5234 -4.50703 -0.597084
Spine1  5.56821 -7.43729 9.98125
HEad  5.05857 25.4058 -18.8015
LeftShoulder1  7.76823 -14.3537 -37.3898
LeftArm  -9.52 -16.2289 -39.7049
LeftForeArm  -178.405 -63.7024 -161.26
LeftHand  -0.25398 0.0180481 5.50724
RightShoulder  5.19424 11.4815 28.6649
RightArm  10.3937 27.9277 62.3878
RightForeArm  175.66 60.0212 163.309
RightHand  -1.63686 6.85735 -15.8373
LeftUpLeg  -1.17111 33.6219 1.32392
LeftLeg  20.3314 15.0853 4.60053
LeftFoot  -8.1277 0.14458 -3.41279
LeftToes  1.06245e-005 4.65869e-005 -8.65517e-006
611
root  11.182 39.6786 8.95575 8.54839 65.0088 14.9557
RightUpLeg  -10.8819 -0.105809 -17.6495
RightLeg  13.6128 8.38914 0.885621
RightFoot  1.57689 -1.23808 11.0004
RightToes  0.000481921 0.542163 -0.142578
Spine  21.6806 -4.54572 0.676695
Spine1  6.32941 -6.70055 7.42455
HEad  7.13708 24.5369 -16.3393
LeftShoulder1  8.40692 -14.4647 -40.511
LeftArm  -11.45 -7.62112 -37.4613
LeftForeArm  179.806 -60.4134 -163.447
LeftHand  -0.25398 0.0180481 5.50724
RightShoulder  4.88764 10.7189 28.363
RightArm  9.42785 27.0819 60.5488
RightForeArm  174.72 58.5331 164.151
RightHand  -1.52538 6.3454 -15.4102
LeftUpLeg  0.718023 29.1082 1.79879
LeftLeg  18.9224 18.9843 3.13715
LeftFoot  -8.01122 0.152431 -3.58953
LeftToes  1.06245e-005 4.65869e-005 -8.65517e-006
612
root  11.3487 39.6651 9.03555 8.93486 66.8162 15.5472
RightUpLeg  -10.0521 -0.243564 -17.9481
RightLeg  14.3978 7.07147 1.00806
RightFoot  0.639908 -1.15868 11.0519
RightToes  0.000481921 0.542163 -0.142578
Spine  19.4617 -4.21281 1.52208
Spine1  6.66087 -6.02978 6.47227
HEad  8.27746 22.435 -14.8683
LeftShoulder1  8.69812 -14.7318 -41.3665
LeftArm  -11.7141 -3.0276 -36.2907
LeftForeArm  -179.907 -57.9913 -164.929
LeftHand  -0.25398 0.0180481 5.50724
RightShoulder  4.58173 9.89692 28.1872
RightArm  8.66351 26.4518 59.3931
RightForeArm  173.762 57.6372 164.588
RightHand  -1.41507 5.78381 -15.0078
LeftUpLeg  0.980789 29.1895 2.02913
LeftLeg  19.0536 17.0716 3.11632
LeftFoot  -8.43068 0.150268 -3.9294
LeftToes  1.06245e-005 4.65869e-005 -8.65517e-006
613
root  11.379 39.4998 9.14505 9.56145 68.9007 16.2788
RightUpLeg  -10.4411 0.236552 -18.2624
RightLeg  17.2359 4.89289 1.39306
RightFoot  -1.09151 -0.993436 10.9587
RightToes  0.000481921 0.542163 -0.142578
Spine  18.2642 -3.63075 1.75927
Spine1  6.24419 -5.38439 6.58244
HEad  8.74307 20.0305 -14.0732
LeftShoulder1  8.65851 -14.6673 -41.318
LeftArm  -11.3575 -1.9302 -35.2644
LeftForeArm  -178.917 -55.9409 -166.103
LeftHand  -0.25398 0.0180481 5.50724
RightShoulder  4.48916 9.61002 28.2304
RightArm  8.02897 25.8914 59.128
RightForeArm  174.592 57.2293 164.887
RightHand  -1.25965 5.27853 -14.0191
LeftUpLeg  -0.363429 32.5884 1.99379
LeftLeg  21.2315 11.4741 4.38168
LeftFoot  -9.58894 0.124005 -4.38368
LeftToes  1.06245e-005 4.65869e-005 -8.65517e-006
614
root  11.3026 39.1581 9.27284 9.72366 70.7556 16.8648
RightUpLeg  -11.6228 -0.280252 -18.1512
RightLeg  21.8145 4.06737 1.59584
RightFoot  -3.43027 -0.761629 10.6395
RightToes  0.000481921 0.542163 -0.142578
Spine  18.4552 -2.98051 1.91053
Spine1  5.20799 -4.5716 6.56628
HEad  8.5238 17.6113 -13.2289
LeftShoulder1  8.23318 -14.2397 -40.1395
LeftArm  -11.3816 -3.3009 -35.1692
LeftForeArm  -177.378 -53.7979 -167.248
LeftHand  -0.25398 0.0180481 5.50724
RightShoulder  4.68892 10.0253 28.6633
RightArm  7.29129 25.457 59.2754
RightForeArm  175.201 57.3936 164.846
RightHand  -1.19208 5.10157 -13.5059
LeftUpLeg  -2.47435 31.6002 2.02469
LeftLeg  25.5089 10.18 5.70489
LeftFoot  -11.3738 0.0671009 -4.78642
LeftToes  1.06245e-005 4.65869e-005 -8.65517e-006
